<?xml version="1.0" encoding="utf-8"?>
<!-- Generator: Adobe Illustrator 24.2.0, SVG Export Plug-In . SVG Version: 6.00 Build 0)  -->
<svg version="1.1" id="Layer_1" xmlns="http://www.w3.org/2000/svg" xmlns:xlink="http://www.w3.org/1999/xlink" x="0px" y="0px"
	 viewBox="0 0 12 12" style="enable-background:new 0 0 12 12;" xml:space="preserve">
<style type="text/css">
	.st0{fill:none;}
</style>
<path class="st0" d="M0,0h12v12H0V0z"/>
<path d="M3.3,5.4C4,6.8,5.2,8,6.6,8.7l1.1-1.1C7.8,7.5,8,7.4,8.2,7.5C8.8,7.7,9.4,7.8,10,7.8c0.3,0,0.5,0.2,0.5,0.5V10
	c0,0.3-0.2,0.5-0.5,0.5c-4.7,0-8.5-3.8-8.5-8.5c0-0.3,0.2-0.5,0.5-0.5h1.8C4,1.5,4.2,1.7,4.2,2c0,0.6,0.1,1.2,0.3,1.8
	c0.1,0.2,0,0.4-0.1,0.5L3.3,5.4z"/>
</svg>
