<?xml version="1.0" encoding="utf-8"?>
<!-- Generator: Adobe Illustrator 25.2.0, SVG Export Plug-In . SVG Version: 6.00 Build 0)  -->
<svg version="1.1" id="Layer_1" xmlns="http://www.w3.org/2000/svg" xmlns:xlink="http://www.w3.org/1999/xlink" x="0px" y="0px"
	 viewBox="0 0 12 12" style="enable-background:new 0 0 12 12;" xml:space="preserve">
<style type="text/css">
	.st0{fill:#C22127;}
</style>
<path class="st0" d="M1.6,6L1.6,6C1.4,6,1.3,6.1,1.3,6.2l0.3,1l1.5,3.3c0.1,0.2,0.3,0.2,0.4,0.1c0.1-0.1,0.2-0.2,0.2-0.4L2.4,6.9
	L1.9,6C1.8,5.9,1.7,5.9,1.6,6"/>
<path class="st0" d="M3.9,3.4V2.7c0.3-0.1,0.6-0.2,0.9-0.4L4.5,2.8C5,2.8,5.6,2.7,6,2.4C6.5,2.5,7,2.7,7.4,3h0.1v0.4
	c0,1-0.8,1.8-1.8,1.8C4.7,5.3,3.9,4.4,3.9,3.4 M5.7,7.4L4.5,6.3C4.7,6.2,4.8,6,4.8,5.7l0,0c0.6,0.2,1.2,0.2,1.8,0l0,0
	C6.6,6,6.7,6.2,7,6.3L5.7,7.4z M4.1,5.8L3.4,6.1C3.1,6.3,2.8,6.4,2.5,6.5l0.1,0.2l0,0l0,0L2.8,7C3,6.9,3.3,6.8,3.6,6.7l0,0
	c0.1,0,0.2-0.1,0.3-0.1L5.5,8c0.1,0.1,0.3,0.1,0.4,0l1.6-1.5c0.1,0,0.2,0.1,0.3,0.1l0,0C8.4,6.8,9,7.1,9.5,7.5
	c0.1,0,0.1,0.1,0.2,0.2c0.3,0,0.5,0.1,0.7,0.2c-0.1-0.3-0.3-0.6-0.5-0.8C9.3,6.6,8.7,6.3,8,6.1L7.3,5.8c-0.1,0-0.1-0.1-0.1-0.1V5.3
	c0.6-0.5,0.9-1.2,0.9-1.9V3.3h0.1c0.1,0,0.2,0,0.2-0.1V3.1C9,3.4,9.1,3.3,9.2,3c0.1-0.4-1.3-1.6-2.5-2.3c0,0-0.1-0.1-0.2-0.1
	c0.1-0.1,0.2-0.1,0.3-0.2c0.1,0,0.1-0.1,0.1-0.2S6.8,0.1,6.7,0.1C6.5,0.3,6.3,0.4,6.2,0.5c-0.9-0.3-1.7,0-2.4,0
	c-0.6,0-0.9,0-1.1,0.3c-0.2,0.4,0.1,1,0.5,1.1V2c0,0.1,0,0.2,0.1,0.2l0,0L2.7,2.9c0.2,0,0.4,0,0.6,0v0.6c0,0.7,0.3,1.4,0.9,1.9v0.4
	C4.2,5.8,4.2,5.8,4.1,5.8"/>
<path class="st0" d="M1.5,10.6V8.3c0-0.1,0-0.3,0.1-0.4L1.3,7.3l0,0l0,0C1,7.6,0.9,7.9,0.9,8.3V11L1,11.1c0.7,0.5,2.8,0.7,4.8,0.7
	c0.6,0,1.2,0,1.8-0.1c-0.3-0.1-0.6-0.3-0.8-0.6C4.7,11.2,2.3,11.1,1.5,10.6"/>
<path class="st0" d="M1.4,5.6C1.8,5.5,2,5,1.8,4.6C1.7,4.3,1.4,4.3,1.2,4.2C0.9,4,0.7,3.8,0.8,3.4C0.2,3.8,0.2,4.6,0.4,5.2
	C0.5,5.6,1,5.8,1.4,5.6"/>
<path class="st0" d="M11.1,10.1c-0.2,0-0.3-0.1-0.3-0.2c0-0.1,0.2-0.2,0.3-0.2c0.2,0,0.3,0.1,0.3,0.2C11.4,10,11.3,10.1,11.1,10.1
	 M10.8,10.8c-0.2,0-0.3-0.1-0.3-0.2c0-0.1,0.2-0.2,0.3-0.2c0.2,0,0.3,0.1,0.3,0.2S10.9,10.8,10.8,10.8 M10,9C9.8,9,9.7,8.9,9.7,8.7
	c0-0.1,0.2-0.2,0.3-0.2c0.2,0,0.3,0.1,0.3,0.2C10.4,8.9,10.2,9,10,9 M10,11.2c-0.2,0-0.3-0.1-0.3-0.2c0-0.1,0.2-0.2,0.3-0.2
	c0.2,0,0.3,0.1,0.3,0.2C10.4,11.1,10.2,11.2,10,11.2 M9.1,11.4c-0.2,0-0.3-0.1-0.3-0.2C8.8,11.1,9,11,9.1,11c0.2,0,0.3,0.1,0.3,0.2
	C9.4,11.3,9.3,11.4,9.1,11.4 M8.2,11.3c-0.2,0-0.3-0.1-0.3-0.2c0-0.1,0.2-0.2,0.3-0.2c0.2,0,0.3,0.1,0.3,0.2S8.4,11.3,8.2,11.3
	 M10.8,9c0.2,0,0.3,0.1,0.3,0.2c0,0.1-0.2,0.2-0.3,0.2c-0.2,0-0.3-0.1-0.3-0.2C10.4,9.1,10.6,9,10.8,9 M9.1,8C7.6,8,7.8,8.6,8,8.8
	l0.3,0.3c0.2,0.2,0,0.5-0.3,0.4L7.2,9.1C6.6,8.8,6.4,9.6,6.4,9.9c0,1,1.2,1.9,2.7,1.9s2.7-0.8,2.7-1.9S10.6,8,9.1,8"/>
</svg>
