<svg xmlns="http://www.w3.org/2000/svg" width="170" height="51.203" viewBox="0 0 170 51.203">
  <g id="MS_White_2019" transform="translate(-138.91 -156.048)">
    <g id="Group_123" data-name="Group 123" transform="translate(138.91 156.048)">
      <g id="Group_120" data-name="Group 120" transform="translate(0 11.439)">
        <path id="Path_21" data-name="Path 21" d="M234.329,210.386s-2.173-1.76-10.244.776c0,0-12.732,3.674-11.7,7.606,0,0,0,3.933,14.179,6.21,0,0,4.554.622,0,1.967,0,0-17.386,8.382-22.148,1.034H138.91V231h63.957s.931,4.538,12.834,2.468c0,0,11.281-1.863,17.7-6.624,0,0,4.451-1.812-6.105-4.942,0,0-16.041-2.2-7.659-5.822,0,0,6.935-3.828,13.247-3.1C232.881,212.973,237.123,212.559,234.329,210.386Z" transform="translate(-138.91 -198.829)" fill="#fff"/>
        <path id="Path_22" data-name="Path 22" d="M396.871,213.347s5.169-6.037,1.216-6.21c0,0-11.862-.346-14.359,9.255a13.862,13.862,0,0,1-.366-3.3s0-4.647-3.823-5.125c0,0-1.738-.913-6.733,4.257,0,0-3.518,4.213-1.3-1.694,0,0,5.473-16.941,12.162-23.2a1.532,1.532,0,0,0,.3-2.693,1.917,1.917,0,0,0-3.128-.3,101.157,101.157,0,0,0-12.585,25.628s-2.618,11.858,3.333,7.689c0,0,7.6-8.47,8.079-4.691a16.552,16.552,0,0,0,4.257,10.077,3.362,3.362,0,0,0,4-.782s1.26-.825-.912-1.259a5.1,5.1,0,0,1-2.4-2.32c1.11.143,3.159-.32,6.828-3.023,0,0,1.885-2.128,1.528,0a3.6,3.6,0,0,0,3.944,3.909s1.825-.086.044-2.345A3.309,3.309,0,0,1,396.871,213.347Zm-1.39-3.561c-.956,1.607-7.95,5.69-7.95,5.69-1.39.565-.564-.478-.564-.478,2.074-4.133,8.339-5.734,8.339-5.734C396.026,209.048,395.482,209.787,395.482,209.787Z" transform="translate(-272.145 -183.613)" fill="#fff"/>
        <path id="Path_23" data-name="Path 23" d="M453.06,242.886s-.868-.347-1.781,1.043l-5.083,6.863s-4.735,3-3.953-4.6c0,0,.781-5.647,3.17-4.04,0,0,.739.348.261,3.432,0,0-.434,2.432.478.564,0,0,5.039-9.47,7.689-5.777C453.842,240.367,455.275,242.5,453.06,242.886Z" transform="translate(-315.517 -216.105)" fill="#fff"/>
        <path id="Path_24" data-name="Path 24" d="M480.4,199.269s1.172-1.955,2.649,0c0,0,1.13,1.477-1.737,5.473,0,0-6.256,10.381-7.341,13.119,0,0-3.954,7.3,0,4.735,0,0,8.556-4.953,13.465-9.34,0,0,3.17-1.737,1.738,1.216,0,0-1.477,2.118-7.993,7.076a2.231,2.231,0,0,0-1.085,2.7s.521,2.041,5.125,0c0,0,5-2.911,3.736.13a9.128,9.128,0,0,1-9.6,3.78s-2.216-.739-2.216-2.781c0,0,.088-1.346-1.433-.261,0,0-6.733,5.083-6.994-1.085a21.786,21.786,0,0,1,4.169-10.859S479.875,201.484,480.4,199.269Z" transform="translate(-330.952 -192.208)" fill="#fff"/>
      </g>
      <g id="Group_121" data-name="Group 121" transform="translate(59.577)">
        <path id="Path_25" data-name="Path 25" d="M282.006,212.1v2.512l.207.084v-2.619Z" transform="translate(-282.006 -188.618)" fill="#fff"/>
        <path id="Path_26" data-name="Path 26" d="M342.09,176.353a2.632,2.632,0,0,1,1.884-.907,2.514,2.514,0,0,1,1.63.671,50.494,50.494,0,0,1,18.011-2.62s-7.451,6.753-.077,9.624c0,0,7.839.931,10.4,3.1a25.929,25.929,0,0,0,6.446,1.666c.48-.88.923-1.713,1.3-2.443a15.727,15.727,0,0,0-4.093-.852,5.56,5.56,0,0,1-3.027-1.009,21.992,21.992,0,0,0-9.624-2.717s-3.57.233-1.087-3.648a11.884,11.884,0,0,1,4.5-3.8s1.552-1.009.621-1.863c0,0-.267-1.475-7.7-.7,0,0-13.938.326-21.591,5.209,0,0-1.211,1.233-4.471,1.156,0,0-8.616-.233-13.971,2.639a4.343,4.343,0,0,1-2.483,1.4,22.646,22.646,0,0,1-4.89,1s-5.435.4-5.59,4.122a29.649,29.649,0,0,0-6.494.529v2.284a31.467,31.467,0,0,1,3.933-.252s7.917.364,8.617-1.914c0,0,.233-.8-1.321-.881,0,0-2.716-.388.466-1.087,0,0,6.6-.95,8.926-2.8,0,0,3.027-2.165,11.72-2.553,0,0,4.968.31,6.365-1.4,0,0,.142-.082.417-.226.694-1.059,1.115-1.64,1.133-1.664A.755.755,0,0,1,342.09,176.353Z" transform="translate(-293.499 -164.525)" fill="#fff"/>
        <path id="Path_27" data-name="Path 27" d="M518.752,156.25s-1.009-1.087-3.648,1.785a52.581,52.581,0,0,0-12.268,12.884s-.508,1.134-1.056,2.477a3.063,3.063,0,0,1,.982.881c.114.15.9,1.332-.391,4a4.323,4.323,0,0,0,1.245-1.616s.776-7.684,12.031-15.136c0,0-2.018,4.5-1.087,13.273,0,0,.31,1.072-.621.885,0,0-2.406-.031-1.63,3.461a2.452,2.452,0,0,1,.077,2.251s-.931,1.785,1.4,4.113c0,0,4.89,6.649,1.863,5.148a74.618,74.618,0,0,0-8.693-5.459s-1.4-1.629-3.493,0c0,0-1.94,2.406,1.009,2.329,0,0,.233-1.164,1.164-.31,0,0,.453.249,1.176.654a3.812,3.812,0,0,1,1.395-.363,1.117,1.117,0,0,1,1.007.5,1.517,1.517,0,0,1,.069,1.276,57.931,57.931,0,0,1,7.064,4.608s.543,1.63,1.63,1.4c0,0,2.794.621,1.552-3.57,0,0-1.4-5.822-4.036-8.15a1.6,1.6,0,0,1-.388-1.785,1.882,1.882,0,0,0,.31-2.639s-1.087-1.164.155-1.475c0,0,2.018.37,1.708-3.889,0,0-1.149-9.539,2.57-15.2C519.847,158.579,521.08,157.337,518.752,156.25Z" transform="translate(-409.75 -156.048)" fill="#fff"/>
      </g>
      <path id="Path_28" data-name="Path 28" d="M529.043,256.947a1.714,1.714,0,1,1-1.769,1.708,1.727,1.727,0,0,1,1.76-1.708Zm-.021.343a1.365,1.365,0,0,0,.021,2.729,1.3,1.3,0,0,0,1.3-1.364,1.318,1.318,0,0,0-1.311-1.364Zm-.26,2.25h-.4v-1.7a3.309,3.309,0,0,1,.656-.062.98.98,0,0,1,.594.134.471.471,0,0,1,.166.365.44.44,0,0,1-.354.406v.021a.488.488,0,0,1,.312.416,1.123,1.123,0,0,0,.126.417h-.427a1.357,1.357,0,0,1-.136-.406c-.031-.187-.134-.271-.354-.271h-.187v.678Zm.01-.958h.188c.218,0,.4-.073.4-.25,0-.157-.114-.261-.365-.261a.9.9,0,0,0-.218.022Z" transform="translate(-364.992 -214.8)" fill="#fff"/>
      <g id="Group_122" data-name="Group 122" transform="translate(0 10.946)">
        <path id="Path_29" data-name="Path 29" d="M145.43,197.611l5.9,10.453,5.8-10.348v10.348h6.726V182.295h-5.484l-7.038,12.729-6.83-12.729H138.91v25.769h6.52Z" transform="translate(-138.91 -182.295)" fill="#fff"/>
        <path id="Path_30" data-name="Path 30" d="M210.171,204.235h8.279L220,208.064h6.934l-10.453-25.769h-4.45l-10.348,25.769h6.83Zm4.036-10.763,2.276,5.8h-4.45Z" transform="translate(-175.399 -182.295)" fill="#fff"/>
        <rect id="Rectangle_52" data-name="Rectangle 52" width="6.623" height="25.769" transform="translate(52.677)" fill="#fff"/>
        <path id="Path_31" data-name="Path 31" d="M337.823,232.218h-7.506a31.316,31.316,0,0,0,7.506,1.981Z" transform="translate(-250.166 -211.313)" fill="#fff"/>
        <path id="Path_32" data-name="Path 32" d="M296.162,203.2h-5.347V182.295h-6.83v25.769H303.8C297.717,206.237,296.429,204.114,296.162,203.2Z" transform="translate(-223.235 -182.295)" fill="#fff"/>
      </g>
    </g>
  </g>
</svg>
